<?xml version="1.0" encoding="UTF-8"?><svg id="Layer_1" xmlns="http://www.w3.org/2000/svg" viewBox="0 0 367.78 263.33"><defs><style>.cls-1{fill:#fbe9e8;}.cls-2{fill:#231f20;}</style></defs><path class="cls-2" d="m201.52,155.63c-9.91,28.83-19.58,57.19-29.45,85.47-2.06,5.89-3.78,11.91-6.77,17.5-1.5,2.8-3.31,3.71-6.25,3.55-3.15-.18-3.34-2.65-4-4.75-2.23-7.19,1.14-13.56,3.34-19.95,11.76-34.2,23.7-68.33,35.67-102.46,10.59-30.19,21.13-60.4,32.03-90.48,4.6-12.7,8.53-25.64,13.75-38.13,1-2.4,1.73-4.13,4.51-4.22,2.89-.09,5.26.08,6.79,3.43,3.88,8.51,6.45,17.48,9.63,26.22,12.54,34.51,24.8,69.13,36.97,103.77,7.92,22.56,15.5,45.23,23.25,67.85,4.32,12.6,8.65,25.19,12.99,37.79,1.41,4.08,4.54,4.98,8.52,4.93,9.17-.13,9.22-.04,6.31-8.47-10.28-29.79-20.47-59.61-30.92-89.33-10.46-29.73-20.91-59.47-31.1-89.3-5.25-15.37-10.93-30.6-15.99-46.04-1.25-3.81.45-6.3,1.97-8.88,1.25-2.13,3.74-2.15,5.89-.64,2.65,1.87,4.19,4.65,5.23,7.54,5.35,14.77,10.59,29.59,15.76,44.43,10.49,30.14,20.88,60.31,31.36,90.45,7.11,20.45,14.36,40.86,21.48,61.31,4.9,14.09,9.72,28.21,14.49,42.34,2.4,7.11-.77,11.52-8.18,11.54-7.99.03-15.99,0-23.98,0-6.23,0-8.76-1.93-10.93-8.16-10.73-30.83-21.48-61.65-32.24-92.47-1.54-4.4-2.33-4.62-5.67-.8-10.71,12.24-21.49,24.41-32.34,36.52-6.72,7.5-11.17,5.67-16.23-.16-6.25-7.19-12.43-14.44-18.68-21.63-4.85-5.58-9.75-11.12-14.67-16.65-.62-.69-1.44-1.2-2.56-2.1Z"/><path class="cls-2" d="m137.79,74.67c0,19.99.45,39.99-.15,59.96-.43,14.12.47,28.32-.77,42.34-2.98,33.77-17.23,61.59-47.47,78.74-14.13,8.01-29.92,9.44-46.28,5.57-17.76-4.21-29.62-15.82-40.42-29.18-3.73-4.62-3.72-9.04.78-14.6,6-7.4,11.98-14.93,17.45-22.61,8.15-11.47,16.93-22.44,25.21-33.79,13.23-18.15,26.9-35.97,40.42-53.91,11.33-15.05,22.82-29.99,33.97-45.18,2.34-3.19,3.66-7.11,3.59-11.41-.18-10.49-.16-20.99,0-31.48.05-2.89-.87-3.61-3.66-3.61-28.15.07-56.3-.16-84.45.14-6.4.07-12.77,1.07-19.1-.51-5.27-1.32-6.45-3.25-5.82-8.95C11.6,1.59,15.23.46,18.67.3,27.15-.11,35.65.02,44.14.03c27.15.03,54.29.12,81.44.17,9.69.02,12.12,2.29,12.17,12.01.09,17.99.04,35.98.05,53.97,0,2.83,0,5.66-.01,8.49Z"/><path class="cls-1" d="m271.15,104.34c.91,3.28-2.44,5.81-4.53,8.38-5.92,7.26-12.43,14.04-18.68,21.03-1.74,1.94-3.32,1.83-4.94-.1-6.93-8.27-13.7-16.69-20.89-24.72-2.54-2.84-2.63-5.7-1.65-8.62,7.47-22.23,15.1-44.41,22.79-66.57.44-1.27.84-3.24,2.49-3.41,2.28-.23,1.57,2.28,1.93,3.3,7.6,21.62,14.91,43.35,22.52,64.98.58,1.65.6,3.15.98,5.73Z"/><path class="cls-1" d="m282.99,136.82c.58,7.01-4.93,10.82-8.64,15.22-8.75,10.41-18.14,20.27-26.65,30.9-1.74,2.18-2.8.7-3.91-.53-5.14-5.77-10.31-11.52-15.36-17.36-5.68-6.57-11.22-13.27-16.89-19.85-4.99-5.79-3.95-11.79-1.07-18.09,3.17-6.94,3.21-7.15,8.38-1.54,8.45,9.18,16.65,18.58,24.97,27.88,1.14,1.27,2.4,2.79,3.83.41,3.18-5.29,8.28-8.83,12.03-13.67,4.93-6.37,10.89-11.94,16.22-18.02,1.57-1.79,2.42-.6,2.79.43,1.68,4.66,4.7,8.94,4.3,14.23Z"/><path class="cls-1" d="m125.2,140.72c-.71,14.33-.55,28.78-2.33,42.98-3.38,27.01-16.88,47.84-41.44,60.44-13.45,6.89-27.56,4.83-41.47.88-2.38-.68-1.29-1.81-.31-3.14,6.91-9.43,13.7-18.94,20.57-28.4,13.94-19.18,27.9-38.35,41.86-57.52,6.4-8.78,13.29-17.21,19.12-26.41.63-.99,1.61-1.73,2.95-1.31,1.37.42.86,1.61.87,2.48.06,3.33.02,6.66.02,9.99.05,0,.1,0,.15,0Z"/><path class="cls-1" d="m123.95,81.02c.17,11.71,1.51,22.82-5.84,32.39-5.35,6.96-10.62,13.99-15.84,21.04-13.41,18.13-26.82,36.27-40.16,54.46-11.3,15.42-22.49,30.93-33.74,46.39-1.25,1.71-2.42,2.33-4.32.38-2.75-2.82-5.13-6.07-8.76-7.99-1.48-.78-1.25-1.77-.18-3.18,15.23-20.1,30.37-40.26,45.51-60.43,17.86-23.78,35.61-47.64,53.62-71.31,2.91-3.82,5.28-8.19,9.72-11.76Z"/></svg>