<?xml version="1.0" encoding="utf-8"?>
<!-- Generator: Adobe Illustrator 27.7.0, SVG Export Plug-In . SVG Version: 6.00 Build 0)  -->
<svg version="1.1" id="Layer_1" xmlns="http://www.w3.org/2000/svg" xmlns:xlink="http://www.w3.org/1999/xlink" x="0px" y="0px"
	 viewBox="0 0 367.8 263.3" style="enable-background:new 0 0 367.8 263.3;" xml:space="preserve">
<style type="text/css">
	.st0{fill:#231F20;}
	.st1{fill:#DFDED9;}
</style>
<g>
	<path class="st0" d="M201.5,155.6c-9.9,28.8-19.6,57.2-29.4,85.5c-2.1,5.9-3.8,11.9-6.8,17.5c-1.5,2.8-3.3,3.7-6.2,3.5
		c-3.1-0.2-3.3-2.6-4-4.8c-2.2-7.2,1.1-13.6,3.3-19.9c11.8-34.2,23.7-68.3,35.7-102.5c10.6-30.2,21.1-60.4,32-90.5
		c4.6-12.7,8.5-25.6,13.8-38.1c1-2.4,1.7-4.1,4.5-4.2c2.9-0.1,5.3,0.1,6.8,3.4c3.9,8.5,6.5,17.5,9.6,26.2
		c12.5,34.5,24.8,69.1,37,103.8c7.9,22.6,15.5,45.2,23.2,67.9c4.3,12.6,8.6,25.2,13,37.8c1.4,4.1,4.5,5,8.5,4.9
		c9.2-0.1,9.2,0,6.3-8.5c-10.3-29.8-20.5-59.6-30.9-89.3C307.4,118.6,297,88.9,286.8,59c-5.2-15.4-10.9-30.6-16-46
		c-1.2-3.8,0.5-6.3,2-8.9c1.2-2.1,3.7-2.2,5.9-0.6c2.6,1.9,4.2,4.7,5.2,7.5c5.4,14.8,10.6,29.6,15.8,44.4
		c10.5,30.1,20.9,60.3,31.4,90.4c7.1,20.4,14.4,40.9,21.5,61.3c4.9,14.1,9.7,28.2,14.5,42.3c2.4,7.1-0.8,11.5-8.2,11.5
		c-8,0-16,0-24,0c-6.2,0-8.8-1.9-10.9-8.2c-10.7-30.8-21.5-61.6-32.2-92.5c-1.5-4.4-2.3-4.6-5.7-0.8c-10.7,12.2-21.5,24.4-32.3,36.5
		c-6.7,7.5-11.2,5.7-16.2-0.2c-6.2-7.2-12.4-14.4-18.7-21.6c-4.9-5.6-9.8-11.1-14.7-16.6C203.4,157.1,202.6,156.5,201.5,155.6
		L201.5,155.6z"/>
	<path class="st0" d="M137.8,74.7c0,20,0.4,40-0.1,60c-0.4,14.1,0.5,28.3-0.8,42.3c-3,33.8-17.2,61.6-47.5,78.7
		c-14.1,8-29.9,9.4-46.3,5.6c-17.8-4.2-29.6-15.8-40.4-29.2c-3.7-4.6-3.7-9,0.8-14.6c6-7.4,12-14.9,17.5-22.6
		c8.1-11.5,16.9-22.4,25.2-33.8c13.2-18.1,26.9-36,40.4-53.9c11.3-15.1,22.8-30,34-45.2c2.3-3.2,3.7-7.1,3.6-11.4
		c-0.2-10.5-0.2-21,0-31.5c0.1-2.9-0.9-3.6-3.7-3.6c-28.2,0.1-56.3-0.2-84.4,0.1c-6.4,0.1-12.8,1.1-19.1-0.5
		c-5.3-1.3-6.4-3.2-5.8-8.9c0.5-4.6,4.1-5.7,7.6-5.9C27.1-0.1,35.7,0,44.1,0c27.2,0,54.3,0.1,81.4,0.2c9.7,0,12.1,2.3,12.2,12
		c0.1,18,0,36,0.1,54C137.8,69,137.8,71.8,137.8,74.7L137.8,74.7z"/>
	<path class="st1" d="M271.1,104.3c0.9,3.3-2.4,5.8-4.5,8.4c-5.9,7.3-12.4,14-18.7,21c-1.7,1.9-3.3,1.8-4.9-0.1
		c-6.9-8.3-13.7-16.7-20.9-24.7c-2.5-2.8-2.6-5.7-1.6-8.6c7.5-22.2,15.1-44.4,22.8-66.6c0.4-1.3,0.8-3.2,2.5-3.4
		c2.3-0.2,1.6,2.3,1.9,3.3c7.6,21.6,14.9,43.3,22.5,65C270.8,100.3,270.8,101.8,271.1,104.3L271.1,104.3z"/>
	<path class="st1" d="M283,136.8c0.6,7-4.9,10.8-8.6,15.2c-8.8,10.4-18.1,20.3-26.6,30.9c-1.7,2.2-2.8,0.7-3.9-0.5
		c-5.1-5.8-10.3-11.5-15.4-17.4c-5.7-6.6-11.2-13.3-16.9-19.9c-5-5.8-3.9-11.8-1.1-18.1c3.2-6.9,3.2-7.2,8.4-1.5
		c8.4,9.2,16.6,18.6,25,27.9c1.1,1.3,2.4,2.8,3.8,0.4c3.2-5.3,8.3-8.8,12-13.7c4.9-6.4,10.9-11.9,16.2-18c1.6-1.8,2.4-0.6,2.8,0.4
		C280.4,127.3,283.4,131.5,283,136.8L283,136.8z"/>
	<path class="st1" d="M125.2,140.7c-0.7,14.3-0.6,28.8-2.3,43c-3.4,27-16.9,47.8-41.4,60.4C68,251,53.9,249,40,245
		c-2.4-0.7-1.3-1.8-0.3-3.1c6.9-9.4,13.7-18.9,20.6-28.4c13.9-19.2,27.9-38.4,41.9-57.5c6.4-8.8,13.3-17.2,19.1-26.4
		c0.6-1,1.6-1.7,2.9-1.3c1.4,0.4,0.9,1.6,0.9,2.5c0.1,3.3,0,6.7,0,10C125.1,140.7,125.1,140.7,125.2,140.7L125.2,140.7z"/>
	<path class="st1" d="M123.9,81c0.2,11.7,1.5,22.8-5.8,32.4c-5.3,7-10.6,14-15.8,21c-13.4,18.1-26.8,36.3-40.2,54.5
		c-11.3,15.4-22.5,30.9-33.7,46.4c-1.2,1.7-2.4,2.3-4.3,0.4c-2.8-2.8-5.1-6.1-8.8-8c-1.5-0.8-1.2-1.8-0.2-3.2
		c15.2-20.1,30.4-40.3,45.5-60.4c17.9-23.8,35.6-47.6,53.6-71.3C117.2,89,119.5,84.6,123.9,81L123.9,81z"/>
</g>
</svg>
